<?xml version="1.0" encoding="UTF-8"?>
<!DOCTYPE svg PUBLIC "-//W3C//DTD SVG 1.1//EN" "http://www.w3.org/Graphics/SVG/1.1/DTD/svg11.dtd">
<!-- Creator: CorelDRAW X8 -->
<svg xmlns="http://www.w3.org/2000/svg" xml:space="preserve" width="64px" height="64px" version="1.1" style="shape-rendering:geometricPrecision; text-rendering:geometricPrecision; image-rendering:optimizeQuality; fill-rule:evenodd; clip-rule:evenodd"
viewBox="0 0 64 64"
 xmlns:xlink="http://www.w3.org/1999/xlink">
 <defs>
  <style type="text/css">
   <![CDATA[
    .fil1 {fill:none}
    .fil0 {fill:url(#id0)}
   ]]>
  </style>
  <linearGradient id="id0" gradientUnits="userSpaceOnUse" x1="13.0242" y1="31.7626" x2="74.7115" y2="31.7626">
   <stop offset="0" style="stop-opacity:1; stop-color:#108EC1"/>
   <stop offset="0.458824" style="stop-opacity:1; stop-color:#0F629A"/>
   <stop offset="1" style="stop-opacity:1; stop-color:#0D3572"/>
  </linearGradient>
 </defs>
 <g id="Camada_x0020_1">
  <metadata id="CorelCorpID_0Corel-Layer"/>
  <g id="_2070472792544">
   <path class="fil0" d="M40 46l-5 5 10 11c1,1 3,1 4,0l15 -15 0 -24 -21 -21c-1,-1 -3,-1 -4,0l-25 25c-1,1 -1,2 0,3l9 10 6 -6 -5 -5c0,0 0,-1 0,-1l16 -16c0,0 1,0 1,0l23 22c0,1 0,1 0,2l-16 16c-1,0 -1,0 -2,0l-6 -6zm24 7l0 10c0,-1 0,-1 0,-1l-4 -3c0,-1 0,-2 0,-3l4 -3zm-64 -6l0 -11 16 16c0,0 1,0 1,0l22 -23c1,0 1,-1 0,-1l-4 -5 5 -6 10 10c1,1 1,2 0,3l-13 13 -19 19c-1,1 -3,1 -4,0l-14 -15zm0 -13l0 -12 21 -20c1,-1 3,-1 4,0l3 4 -28 28zm12 -1l6 6c1,1 1,2 0,2l-3 4c-1,0 -2,0 -3,0l-5 -6c-1,-1 -1,-2 0,-3l3 -3c1,-1 2,-1 2,0zm33 6l6 -6c1,0 2,0 3,0l3 3c0,1 0,2 0,3l-6 6c-1,0 -2,0 -3,0l-3 -3c0,-1 0,-2 0,-3z"/>
   <rect class="fil1" width="64.0012" height="64.0012"/>
  </g>
 </g>
</svg>
